<svg width="56" height="56" viewBox="0 0 56 56" fill="none" xmlns="http://www.w3.org/2000/svg">
<path d="M40.832 11.666C42.765 11.666 44.332 13.233 44.332 15.166C44.332 17.099 42.765 18.666 40.832 18.666C38.8991 18.666 37.332 17.099 37.332 15.166C37.332 13.233 38.8991 11.666 40.832 11.666Z" stroke="#A180E9" stroke-width="2.5" stroke-linecap="round" stroke-linejoin="round"/>
<path d="M6.47451 26.0018C4.13383 28.616 4.08348 32.5601 6.23168 35.3346C10.4946 40.8404 15.1604 45.5061 20.6661 49.7689C23.4406 51.9172 27.3846 51.8668 29.9989 49.5262C37.0964 43.1711 43.5961 36.5298 49.8691 29.2311C50.4893 28.5096 50.8771 27.6253 50.9641 26.6777C51.3491 22.488 52.1401 10.4169 48.862 7.13874C45.5837 3.86057 33.5126 4.65148 29.3229 5.03646C28.3753 5.12354 27.491 5.51145 26.7693 6.1316C19.4709 12.4044 12.8295 18.9043 6.47451 26.0018Z" stroke="#A180E9" stroke-width="2.5" stroke-linecap="round" stroke-linejoin="round"/>
<path d="M32.1716 28.8546C32.2213 27.9189 32.4838 26.2072 31.0612 24.9064M31.0612 24.9064C30.6209 24.5039 30.0194 24.1406 29.2001 23.8517C26.2681 22.8184 22.6667 26.2772 25.2143 29.4433C26.5838 31.145 27.6396 31.6686 27.5402 33.6011C27.4702 34.9607 26.1348 36.381 24.3748 36.9221C22.8458 37.392 21.1591 36.7697 20.0923 35.5776C18.7898 34.1223 18.9213 32.7501 18.9102 32.1521M31.0612 24.9064L32.6668 23.3008M20.2084 35.7592L18.6836 37.284" stroke="#A180E9" stroke-width="2.5" stroke-linecap="round" stroke-linejoin="round"/>
</svg>
