<svg width="56" height="56" viewBox="0 0 56 56" fill="none" xmlns="http://www.w3.org/2000/svg">
<path d="M43.1654 35H38.4987M30.332 35H25.6654M17.4987 35H12.832" stroke="#A180E9" stroke-width="2.5" stroke-linecap="round" stroke-linejoin="round"/>
<path d="M28.0013 4.66602C22.8466 4.66602 18.668 8.88683 18.668 14.0935C18.668 17.0706 19.8346 19.3855 22.168 21.4532C23.8127 22.9106 25.8052 25.3314 27.0012 27.2935C27.575 28.2345 28.3863 28.2345 29.0014 27.2935C30.2581 25.3704 32.1899 22.9106 33.8346 21.4532C36.168 19.3855 37.3346 17.0706 37.3346 14.0935C37.3346 8.88683 33.1559 4.66602 28.0013 4.66602Z" stroke="#A180E9" stroke-width="2.5" stroke-linecap="round" stroke-linejoin="round"/>
<path d="M28 14H28.021" stroke="#A180E9" stroke-width="2.5" stroke-linecap="round" stroke-linejoin="round"/>
<path d="M44.3346 18.666C46.1418 19.0157 47.5052 19.5994 48.6009 20.5735C51.3346 23.0038 51.3346 26.915 51.3346 34.738C51.3346 42.5607 51.3346 46.4721 48.6009 48.9025C45.8674 51.3327 41.4674 51.3327 32.668 51.3327H23.3346C14.5351 51.3327 10.1353 51.3327 7.40163 48.9025C4.66797 46.4721 4.66797 42.5607 4.66797 34.738C4.66797 26.915 4.66797 23.0037 7.40163 20.5735C8.49739 19.5994 9.8608 19.0157 11.668 18.666" stroke="#A180E9" stroke-width="2.5" stroke-linecap="round" stroke-linejoin="round"/>
</svg>
