<svg width="56" height="56" viewBox="0 0 56 56" fill="none" xmlns="http://www.w3.org/2000/svg">
<path d="M28.0103 24.5H28.0313M37.3332 24.5H37.3542M18.6875 24.5H18.7084" stroke="#A180E9" stroke-width="3.5" stroke-linecap="round" stroke-linejoin="round"/>
<path d="M4.66797 24.5007C4.66797 22.7021 4.69938 20.9465 4.75918 19.2514C4.95455 13.7133 5.05225 10.9442 7.3048 8.6747C9.55735 6.40521 12.4046 6.28338 18.0991 6.03976C21.2234 5.90608 24.5501 5.83398 28.0013 5.83398C31.4525 5.83398 34.7792 5.90608 37.9035 6.03976C43.598 6.28338 46.4454 6.40521 48.6977 8.6747C50.9503 10.9442 51.0481 13.7133 51.2434 19.2514C51.3031 20.9465 51.3346 22.7021 51.3346 24.5007C51.3346 26.2992 51.3031 28.0548 51.2434 29.7499C51.0481 35.2881 50.9503 38.0571 48.6977 40.3267C46.4454 42.5961 43.598 42.7179 37.9033 42.9615C36.1908 43.0348 34.4175 43.0896 32.5963 43.1242C30.8671 43.1568 30.0024 43.1734 29.2426 43.4627C28.4829 43.7521 27.8438 44.3001 26.5651 45.3963L21.4797 49.7571C21.171 50.0217 20.7777 50.1673 20.3711 50.1673C19.4305 50.1673 18.668 49.4048 18.668 48.4642V42.9851C18.4776 42.9774 18.288 42.9697 18.0991 42.9615C12.4046 42.7179 9.55735 42.5961 7.3048 40.3265C5.05225 38.0571 4.95455 35.2881 4.75918 29.7499C4.69938 28.0548 4.66797 26.2992 4.66797 24.5007Z" stroke="#A180E9" stroke-width="2.5" stroke-linecap="round" stroke-linejoin="round"/>
</svg>
