<svg width="45" height="45" viewBox="0 0 45 45" fill="none" xmlns="http://www.w3.org/2000/svg">
<path d="M43.2526 1.25L24.5859 21.0833" stroke="#A180E9" stroke-width="2.5" stroke-linecap="round" stroke-linejoin="round"/>
<path d="M16.29 20.1159C10.5026 22.3358 5.87628 21.955 1.25 20.1231C2.41804 35.1556 9.42633 40.9374 18.7708 43.25C18.7708 43.25 25.8109 38.2716 26.8257 26.4672C26.9356 25.1888 26.9906 24.5497 26.7249 23.8294C26.4589 23.1091 25.9371 22.5925 24.8934 21.5593C23.177 19.8599 22.3188 19.0104 21.3001 18.7976C20.2816 18.585 18.9511 19.0953 16.29 20.1159Z" stroke="#A180E9" stroke-width="2.5" stroke-linecap="round" stroke-linejoin="round"/>
<path d="M4.75 32.6249C4.75 32.6249 10.5833 33.7501 16.4167 29.25" stroke="#A180E9" stroke-width="2.5" stroke-linecap="round" stroke-linejoin="round"/>
<path d="M14.0833 11.1667C14.0833 12.7775 12.7775 14.0833 11.1667 14.0833C9.55583 14.0833 8.25 12.7775 8.25 11.1667C8.25 9.55583 9.55583 8.25 11.1667 8.25C12.7775 8.25 14.0833 9.55583 14.0833 11.1667Z" stroke="#A180E9" stroke-width="2.5" stroke-linecap="round" stroke-linejoin="round"/>
<path d="M19.9141 3.58398V3.81732" stroke="#A180E9" stroke-width="2.5" stroke-linecap="round" stroke-linejoin="round"/>
</svg>
