<svg width="26" height="21" viewBox="0 0 26 21" fill="none" xmlns="http://www.w3.org/2000/svg">
<path d="M9.86241 1.52691C10.9792 1.17464 12.1442 0.996905 13.3157 1.00004C18.1296 1.00004 21.4057 3.86345 23.3591 6.38783C24.3375 7.6546 24.8268 8.2857 24.8268 10.1629C24.8268 12.0413 24.3375 12.6724 23.3591 13.9381C21.4057 16.4624 18.1296 19.3259 13.3157 19.3259C8.50181 19.3259 5.22577 16.4624 3.27234 13.9381C2.29391 12.6736 1.80469 12.0402 1.80469 10.1629C1.80469 8.28455 2.29391 7.65346 3.27234 6.38783C3.86903 5.61208 4.53351 4.89036 5.258 4.23111" stroke="#272727" stroke-opacity="0.5" stroke-width="1.71805" stroke-linecap="round"/>
<path d="M16.7699 10.1629C16.7699 11.0742 16.4061 11.9482 15.7585 12.5926C15.1108 13.237 14.2325 13.599 13.3166 13.599C12.4007 13.599 11.5224 13.237 10.8747 12.5926C10.2271 11.9482 9.86328 11.0742 9.86328 10.1629C9.86328 9.25159 10.2271 8.37761 10.8747 7.73321C11.5224 7.08882 12.4007 6.72681 13.3166 6.72681C14.2325 6.72681 15.1108 7.08882 15.7585 7.73321C16.4061 8.37761 16.7699 9.25159 16.7699 10.1629Z" stroke="#272727" stroke-opacity="0.5" stroke-width="1.71805"/>
</svg>
