<svg width="25" height="25" viewBox="0 0 25 25" fill="none" xmlns="http://www.w3.org/2000/svg">
<path d="M9.05773 3.52691C10.1745 3.17464 11.3395 2.9969 12.511 3.00004C17.325 3.00004 20.601 5.86345 22.5544 8.38783C23.5329 9.6546 24.0221 10.2857 24.0221 12.1629C24.0221 14.0413 23.5329 14.6724 22.5544 15.9381C20.601 18.4624 17.325 21.3259 12.511 21.3259C7.69712 21.3259 4.42108 18.4624 2.46766 15.9381C1.48922 14.6736 1 14.0402 1 12.1629C1 10.2846 1.48922 9.65346 2.46766 8.38783C3.06435 7.61208 3.72882 6.89036 4.45331 6.23111" stroke="#272727" stroke-opacity="0.5" stroke-width="1.71805" stroke-linecap="round"/>
<path d="M15.9652 12.1629C15.9652 13.0742 15.6014 13.9482 14.9538 14.5926C14.3061 15.237 13.4278 15.599 12.5119 15.599C11.596 15.599 10.7177 15.237 10.07 14.5926C9.42242 13.9482 9.05859 13.0742 9.05859 12.1629C9.05859 11.2516 9.42242 10.3776 10.07 9.73321C10.7177 9.08882 11.596 8.72681 12.5119 8.72681C13.4278 8.72681 14.3061 9.08882 14.9538 9.73321C15.6014 10.3776 15.9652 11.2516 15.9652 12.1629Z" stroke="#272727" stroke-opacity="0.5" stroke-width="1.71805"/>
<path d="M3.99023 1.19324L22.1794 23.8682" stroke="#939393" stroke-width="1.5" stroke-linecap="round"/>
</svg>
