<svg width="26" height="23" viewBox="0 0 26 23" fill="none" xmlns="http://www.w3.org/2000/svg">
<path d="M7.94414 0.0541972C6.30898 0.379197 5.03438 1.49638 4.50625 3.08076C4.34375 3.54795 4.34375 3.58857 4.34375 4.45185C4.34375 5.31514 4.34375 5.35576 4.50625 5.82295C4.98867 7.25498 6.07539 8.30615 7.53789 8.74795C7.93398 8.86982 8.08633 8.88506 8.70586 8.89014C9.2543 8.89521 9.50313 8.8749 9.79766 8.79873C11.4785 8.36709 12.7125 7.1331 13.1035 5.48271C13.2508 4.86826 13.2508 4.03037 13.1035 3.41084C12.7277 1.83662 11.4836 0.551853 9.92461 0.135447C9.40156 -0.0067403 8.4418 -0.0422872 7.94414 0.0541972Z" fill="#666666"/>
<path d="M18.0089 8.69207C17.8566 8.74793 13.5402 11.8456 11.3566 13.4604C11.1077 13.6432 10.9808 13.7803 10.8894 13.9682C10.5441 14.6639 10.9605 15.4917 11.7222 15.6034C12.0573 15.6542 12.3468 15.5577 12.7987 15.2378L13.1999 14.9585V18.1323C13.1999 21.1995 13.205 21.3163 13.3015 21.5854C13.4386 21.951 13.7484 22.2913 14.1038 22.4639L14.3933 22.6061L15.6273 22.6214L16.8562 22.6366V19.9249V17.2132L16.973 16.9948C17.1761 16.6139 17.2827 16.5835 18.4405 16.5987C19.3597 16.6139 19.4511 16.6241 19.5831 16.7206C19.9081 16.9593 19.903 16.8932 19.903 19.9046V22.6366L21.137 22.6214C22.2999 22.6061 22.3812 22.601 22.63 22.4843C22.7773 22.4182 22.9956 22.2557 23.1277 22.1186C23.5593 21.6616 23.5288 21.9003 23.5593 18.2186L23.5847 14.9534L23.9097 15.1921C24.4784 15.6136 24.7933 15.6999 25.2402 15.5628C25.5195 15.4815 25.8191 15.2073 25.9206 14.9382C26.0476 14.6132 26.007 14.1257 25.8343 13.8616C25.7429 13.7194 24.8085 13.0136 22.3761 11.2464C20.5429 9.91589 18.9737 8.78855 18.8823 8.74285C18.6589 8.62605 18.2425 8.60066 18.0089 8.69207Z" fill="#666666"/>
<path d="M7.81754 9.32678C5.15152 9.65685 2.87144 11.0381 1.44449 13.1861C0.626913 14.4151 0.0937104 15.908 0.0124604 17.1776C-0.0129302 17.6143 -0.00277397 17.7057 0.0733979 17.8276C0.271445 18.1272 -0.0891021 18.1119 6.44644 18.1119H12.4386V17.2334V16.36H11.9461C11.5093 16.36 11.4129 16.3397 11.1539 16.2229C10.7476 16.0299 10.3515 15.6389 10.1738 15.2529C10.0468 14.9787 10.0265 14.8772 10.0265 14.4811C10.0265 14.0951 10.0468 13.9783 10.1586 13.7397C10.2347 13.5822 10.382 13.3588 10.4836 13.242C10.5902 13.1252 11.357 12.5361 12.1949 11.9268L13.7132 10.8248L13.5711 10.7131C13.3375 10.5252 12.5453 10.1088 12.0578 9.92092C11.4586 9.68224 10.8492 9.50959 10.255 9.40803C9.67613 9.30646 8.34566 9.26584 7.81754 9.32678Z" fill="#666666"/>
</svg>
