<svg width="23" height="22" viewBox="0 0 23 22" fill="none" xmlns="http://www.w3.org/2000/svg">
<path d="M6.53954 0.0701756C5.00204 0.351426 3.68485 1.49518 3.19735 2.96705C2.99579 3.57643 2.93485 4.00299 2.97235 4.61705C3.03329 5.74674 3.45517 6.69361 4.24267 7.47643C5.08173 8.31549 6.08954 8.73268 7.28954 8.72799C8.1661 8.72799 8.85048 8.54518 9.60048 8.09986C10.013 7.8608 10.7255 7.12486 11.0161 6.64674L11.2599 6.23893L12.802 6.22486L14.3442 6.2108L14.8974 5.65768L15.4458 5.10924L15.9614 5.62486C16.5333 6.20143 16.6458 6.25768 17.077 6.22018L17.3583 6.19674L17.902 5.65299L18.4458 5.10924L18.938 5.60143C19.2052 5.8733 19.5005 6.12643 19.5849 6.16861C19.7114 6.22955 19.8708 6.23893 20.4192 6.22486C21.0286 6.2108 21.0989 6.20143 21.1927 6.11236C21.3145 5.9858 21.8911 4.1108 21.8911 3.82955C21.8911 3.3608 21.6427 2.92955 21.2349 2.69986L20.977 2.55455L16.1208 2.54049L11.2599 2.53111L11.0489 2.16549C10.1208 0.585801 8.30673 -0.257949 6.53954 0.0701756ZM7.52392 2.90143C7.8661 3.0608 8.1661 3.35611 8.33485 3.70299C8.44267 3.92799 8.46142 4.01705 8.46142 4.38268C8.45673 4.75299 8.44267 4.83736 8.32079 5.07643C8.14267 5.43268 7.77235 5.77486 7.4161 5.90611C7.0411 6.05143 6.50204 6.0233 6.15048 5.84049C5.14267 5.32486 4.93173 4.02174 5.72392 3.22955C6.22548 2.7233 6.8911 2.60143 7.52392 2.90143Z" fill="#666666"/>
<path d="M11.461 10.2889C10.1017 10.4717 8.77041 10.4952 7.64072 10.3592C6.2626 10.1952 5.63916 10.2467 4.93604 10.5936C4.47197 10.8233 3.96104 11.292 3.47822 11.9295C3.10322 12.4217 2.73291 12.7405 2.27354 12.9608C1.69697 13.2373 1.42979 13.2842 0.248535 13.3123C0.215723 13.3123 0.14541 13.3545 0.0938477 13.4061C9.76592e-05 13.4998 9.76563e-05 13.5608 9.76563e-05 16.7717C9.76563e-05 20.3811 -0.0139649 20.217 0.29541 20.2733C0.675098 20.3389 8.05322 21.1452 8.50791 21.1733C9.75479 21.2389 11.1985 20.8967 12.2813 20.2733C12.9095 19.9123 21.9563 13.978 22.1392 13.8045C22.397 13.5655 22.5001 13.3123 22.5001 12.9092C22.5001 12.2998 22.186 11.892 21.5485 11.6811C20.6532 11.3858 19.3688 11.5592 17.761 12.192C16.8704 12.5436 15.0329 13.4858 13.3126 14.4655C10.7017 15.9608 10.3313 16.1342 9.77354 16.1389C9.36104 16.1436 9.08447 16.0264 8.78916 15.7264C8.57822 15.5061 8.26885 14.9436 8.32041 14.8639C8.3626 14.7936 8.7751 14.7233 9.45479 14.6717C10.9407 14.5592 11.9438 14.292 12.7267 13.8045C13.5657 13.2842 13.9688 12.5717 13.9079 11.7139C13.8657 11.067 13.6032 10.6498 13.0923 10.3967C12.8204 10.2655 12.7313 10.2467 12.3563 10.2373C12.122 10.228 11.7188 10.2561 11.461 10.2889Z" fill="#666666"/>
</svg>
