<svg width="32" height="32" viewBox="0 0 32 32" fill="none" xmlns="http://www.w3.org/2000/svg">
<path d="M28.2631 0.313771C29.4871 -0.364537 31.0217 0.0934413 31.6909 1.33548C32.3592 2.57777 31.9079 4.13538 30.6843 4.81462C25.8729 7.48595 21.4408 13.0076 18.1148 18.1769C16.4832 20.7129 15.1757 23.0727 14.2759 24.798C13.8268 25.6592 13.4811 26.3608 13.2496 26.8414C13.1338 27.0816 13.0436 27.2661 12.9864 27.389C12.9579 27.4503 12.9373 27.4966 12.9239 27.5259C12.9177 27.5393 12.9136 27.5495 12.9107 27.5559L12.9074 27.5626L10.9107 32L8.44351 27.813C7.32168 25.9093 5.56646 24.2138 3.98944 22.9482C3.21753 22.3288 2.52311 21.84 2.02556 21.5092C1.77767 21.3443 1.58065 21.2193 1.44989 21.1385C1.38457 21.0982 1.33508 21.0696 1.30515 21.0517C1.29019 21.0428 1.2809 21.0348 1.27554 21.0317H1.27225C1.2723 21.0317 1.27351 21.0319 1.27554 21.0283C0.0641732 20.3268 -0.358922 18.7658 0.331439 17.5359C1.02249 16.306 2.56374 15.8768 3.77561 16.5776L2.97296 18.01L3.7789 16.5776L3.78219 16.5809L3.80851 16.5943C3.82362 16.6032 3.84298 16.6162 3.86772 16.631C3.91806 16.6611 3.98765 16.704 4.07496 16.7579C4.24947 16.8656 4.4962 17.0197 4.79538 17.2187C5.39243 17.6157 6.21281 18.1933 7.12439 18.9248C8.05984 19.6755 9.12657 20.6247 10.1607 21.7362C11.0908 19.9887 12.3501 17.757 13.8844 15.3722C17.2951 10.0714 22.2959 3.62604 28.2631 0.313771Z" fill="white"/>
</svg>
