<svg width="40" height="40" viewBox="0 0 40 40" fill="none" xmlns="http://www.w3.org/2000/svg">
<path d="M31.1814 5.82524C28.0274 4.25604 24.1681 3.33301 19.9999 3.33301C15.8318 3.33301 11.9725 4.25604 8.8186 5.82524C7.27197 6.59477 6.49865 6.97954 5.74933 8.18931C5 9.39909 5 10.5705 5 12.9132V18.7282C5 28.2005 12.5706 33.467 16.9551 35.7227C18.1778 36.3518 18.7891 36.6663 19.9999 36.6663C21.2108 36.6663 21.8221 36.3518 23.0449 35.7227C27.4294 33.467 34.9999 28.2005 34.9999 18.7282V12.9132C34.9999 10.5705 34.9999 9.39911 34.2506 8.18931C33.5013 6.97952 32.7279 6.59477 31.1814 5.82524Z" stroke="#9C9C9C" stroke-width="2.5" stroke-linecap="round" stroke-linejoin="round"/>
<path d="M20.0012 18.3337C21.8422 18.3337 23.3346 16.8413 23.3346 15.0003C23.3346 13.1594 21.8422 11.667 20.0012 11.667C18.1604 11.667 16.668 13.1594 16.668 15.0003C16.668 16.8413 18.1604 18.3337 20.0012 18.3337ZM20.0012 18.3337V22.5003M20.0012 22.5003V25.0003C20.0012 25.9208 20.7476 26.667 21.6679 26.667H23.3346M20.0012 22.5003H22.5012" stroke="#9C9C9C" stroke-width="2.5" stroke-linecap="round" stroke-linejoin="round"/>
</svg>
